<mxfile host="app.diagrams.net" modified="2023-11-05T20:41:57.038Z" agent="Mozilla/5.0 (Macintosh; Intel Mac OS X 10.15; rv:109.0) Gecko/20100101 Firefox/117.0" etag="LQ5AYbt9VGxjH-fTpt4m" version="22.0.8" type="device">
  <diagram name="Page-1" id="atY9UiiIA_Nw8I-7F4KD">
    <mxGraphModel dx="2556" dy="2064" grid="1" gridSize="10" guides="1" tooltips="1" connect="1" arrows="1" fold="1" page="1" pageScale="1" pageWidth="850" pageHeight="1100" math="0" shadow="0">
      <root>
        <mxCell id="0" />
        <mxCell id="1" parent="0" />
        <mxCell id="sZujaXr4po-Wnfq5Oldd-35" value="" style="rounded=0;whiteSpace=wrap;html=1;fillColor=none;dashed=1;strokeWidth=4;" vertex="1" parent="1">
          <mxGeometry x="160" width="560" height="560" as="geometry" />
        </mxCell>
        <mxCell id="sZujaXr4po-Wnfq5Oldd-8" style="edgeStyle=orthogonalEdgeStyle;rounded=0;orthogonalLoop=1;jettySize=auto;html=1;exitX=0.5;exitY=1;exitDx=0;exitDy=0;entryX=0.5;entryY=0;entryDx=0;entryDy=0;dashed=1;" edge="1" parent="1" source="sZujaXr4po-Wnfq5Oldd-1" target="sZujaXr4po-Wnfq5Oldd-6">
          <mxGeometry relative="1" as="geometry" />
        </mxCell>
        <mxCell id="sZujaXr4po-Wnfq5Oldd-10" value="" style="edgeStyle=orthogonalEdgeStyle;rounded=0;orthogonalLoop=1;jettySize=auto;html=1;dashed=1;" edge="1" parent="1" source="sZujaXr4po-Wnfq5Oldd-1" target="sZujaXr4po-Wnfq5Oldd-2">
          <mxGeometry relative="1" as="geometry" />
        </mxCell>
        <mxCell id="sZujaXr4po-Wnfq5Oldd-1" value="&lt;div&gt;GRAFANA&lt;/div&gt;" style="whiteSpace=wrap;html=1;aspect=fixed;" vertex="1" parent="1">
          <mxGeometry x="240" y="120" width="80" height="80" as="geometry" />
        </mxCell>
        <mxCell id="sZujaXr4po-Wnfq5Oldd-14" style="edgeStyle=orthogonalEdgeStyle;rounded=0;orthogonalLoop=1;jettySize=auto;html=1;exitX=0.75;exitY=1;exitDx=0;exitDy=0;entryX=0;entryY=0.5;entryDx=0;entryDy=0;dashed=1;" edge="1" parent="1" source="sZujaXr4po-Wnfq5Oldd-2" target="sZujaXr4po-Wnfq5Oldd-4">
          <mxGeometry relative="1" as="geometry" />
        </mxCell>
        <mxCell id="sZujaXr4po-Wnfq5Oldd-15" style="edgeStyle=orthogonalEdgeStyle;rounded=0;orthogonalLoop=1;jettySize=auto;html=1;exitX=0.25;exitY=1;exitDx=0;exitDy=0;entryX=0;entryY=0.25;entryDx=0;entryDy=0;dashed=1;" edge="1" parent="1" source="sZujaXr4po-Wnfq5Oldd-2" target="sZujaXr4po-Wnfq5Oldd-5">
          <mxGeometry relative="1" as="geometry">
            <Array as="points">
              <mxPoint x="420" y="400" />
              <mxPoint x="520" y="400" />
              <mxPoint x="520" y="460" />
            </Array>
          </mxGeometry>
        </mxCell>
        <mxCell id="sZujaXr4po-Wnfq5Oldd-16" style="edgeStyle=orthogonalEdgeStyle;rounded=0;orthogonalLoop=1;jettySize=auto;html=1;exitX=1;exitY=0.5;exitDx=0;exitDy=0;entryX=0;entryY=0.5;entryDx=0;entryDy=0;dashed=1;" edge="1" parent="1" source="sZujaXr4po-Wnfq5Oldd-2" target="sZujaXr4po-Wnfq5Oldd-3">
          <mxGeometry relative="1" as="geometry" />
        </mxCell>
        <mxCell id="sZujaXr4po-Wnfq5Oldd-2" value="PROME&lt;br&gt;THEUS" style="whiteSpace=wrap;html=1;aspect=fixed;" vertex="1" parent="1">
          <mxGeometry x="400" y="120" width="80" height="80" as="geometry" />
        </mxCell>
        <mxCell id="sZujaXr4po-Wnfq5Oldd-3" value="CADVISOR" style="whiteSpace=wrap;html=1;aspect=fixed;" vertex="1" parent="1">
          <mxGeometry x="560" y="120" width="80" height="80" as="geometry" />
        </mxCell>
        <mxCell id="sZujaXr4po-Wnfq5Oldd-4" value="NODE&lt;br&gt;EXPORTER" style="whiteSpace=wrap;html=1;aspect=fixed;" vertex="1" parent="1">
          <mxGeometry x="560" y="280" width="80" height="80" as="geometry" />
        </mxCell>
        <mxCell id="sZujaXr4po-Wnfq5Oldd-5" value="BLACK&lt;br&gt;BOX" style="whiteSpace=wrap;html=1;aspect=fixed;" vertex="1" parent="1">
          <mxGeometry x="560" y="440" width="80" height="80" as="geometry" />
        </mxCell>
        <mxCell id="sZujaXr4po-Wnfq5Oldd-6" value="LOKI" style="whiteSpace=wrap;html=1;aspect=fixed;" vertex="1" parent="1">
          <mxGeometry x="240" y="280" width="80" height="80" as="geometry" />
        </mxCell>
        <mxCell id="sZujaXr4po-Wnfq5Oldd-17" style="edgeStyle=orthogonalEdgeStyle;rounded=0;orthogonalLoop=1;jettySize=auto;html=1;exitX=0.5;exitY=0;exitDx=0;exitDy=0;entryX=0.5;entryY=1;entryDx=0;entryDy=0;dashed=1;" edge="1" parent="1" source="sZujaXr4po-Wnfq5Oldd-7" target="sZujaXr4po-Wnfq5Oldd-6">
          <mxGeometry relative="1" as="geometry" />
        </mxCell>
        <mxCell id="sZujaXr4po-Wnfq5Oldd-7" value="PROMTAIL" style="whiteSpace=wrap;html=1;aspect=fixed;" vertex="1" parent="1">
          <mxGeometry x="240" y="440" width="80" height="80" as="geometry" />
        </mxCell>
        <mxCell id="sZujaXr4po-Wnfq5Oldd-19" value="" style="edgeStyle=orthogonalEdgeStyle;rounded=0;orthogonalLoop=1;jettySize=auto;html=1;entryX=0;entryY=0.25;entryDx=0;entryDy=0;exitX=1;exitY=0.25;exitDx=0;exitDy=0;" edge="1" parent="1" source="sZujaXr4po-Wnfq5Oldd-18" target="sZujaXr4po-Wnfq5Oldd-1">
          <mxGeometry relative="1" as="geometry" />
        </mxCell>
        <mxCell id="sZujaXr4po-Wnfq5Oldd-20" value="3000" style="edgeLabel;html=1;align=center;verticalAlign=middle;resizable=0;points=[];" vertex="1" connectable="0" parent="sZujaXr4po-Wnfq5Oldd-19">
          <mxGeometry x="-0.025" relative="1" as="geometry">
            <mxPoint x="-48" as="offset" />
          </mxGeometry>
        </mxCell>
        <mxCell id="sZujaXr4po-Wnfq5Oldd-21" style="edgeStyle=orthogonalEdgeStyle;rounded=0;orthogonalLoop=1;jettySize=auto;html=1;exitX=0.75;exitY=0;exitDx=0;exitDy=0;entryX=0.25;entryY=0;entryDx=0;entryDy=0;" edge="1" parent="1" source="sZujaXr4po-Wnfq5Oldd-18" target="sZujaXr4po-Wnfq5Oldd-2">
          <mxGeometry relative="1" as="geometry" />
        </mxCell>
        <mxCell id="sZujaXr4po-Wnfq5Oldd-23" value="9090" style="edgeLabel;html=1;align=center;verticalAlign=middle;resizable=0;points=[];" vertex="1" connectable="0" parent="sZujaXr4po-Wnfq5Oldd-21">
          <mxGeometry x="-0.0062" y="1" relative="1" as="geometry">
            <mxPoint x="-129" as="offset" />
          </mxGeometry>
        </mxCell>
        <mxCell id="sZujaXr4po-Wnfq5Oldd-24" style="edgeStyle=orthogonalEdgeStyle;rounded=0;orthogonalLoop=1;jettySize=auto;html=1;exitX=0.5;exitY=0;exitDx=0;exitDy=0;entryX=0.5;entryY=0;entryDx=0;entryDy=0;" edge="1" parent="1" source="sZujaXr4po-Wnfq5Oldd-18" target="sZujaXr4po-Wnfq5Oldd-3">
          <mxGeometry relative="1" as="geometry">
            <Array as="points">
              <mxPoint x="40" y="80" />
              <mxPoint x="600" y="80" />
            </Array>
          </mxGeometry>
        </mxCell>
        <mxCell id="sZujaXr4po-Wnfq5Oldd-25" value="8080" style="edgeLabel;html=1;align=center;verticalAlign=middle;resizable=0;points=[];" vertex="1" connectable="0" parent="sZujaXr4po-Wnfq5Oldd-24">
          <mxGeometry x="0.0036" relative="1" as="geometry">
            <mxPoint x="-211" as="offset" />
          </mxGeometry>
        </mxCell>
        <mxCell id="sZujaXr4po-Wnfq5Oldd-26" style="edgeStyle=orthogonalEdgeStyle;rounded=0;orthogonalLoop=1;jettySize=auto;html=1;exitX=0.25;exitY=0;exitDx=0;exitDy=0;entryX=1;entryY=0.5;entryDx=0;entryDy=0;" edge="1" parent="1" source="sZujaXr4po-Wnfq5Oldd-18" target="sZujaXr4po-Wnfq5Oldd-4">
          <mxGeometry relative="1" as="geometry">
            <Array as="points">
              <mxPoint x="20" y="60" />
              <mxPoint x="660" y="60" />
              <mxPoint x="660" y="320" />
            </Array>
          </mxGeometry>
        </mxCell>
        <mxCell id="sZujaXr4po-Wnfq5Oldd-27" value="9100" style="edgeLabel;html=1;align=center;verticalAlign=middle;resizable=0;points=[];" vertex="1" connectable="0" parent="sZujaXr4po-Wnfq5Oldd-26">
          <mxGeometry x="-0.24" y="1" relative="1" as="geometry">
            <mxPoint x="-223" as="offset" />
          </mxGeometry>
        </mxCell>
        <mxCell id="sZujaXr4po-Wnfq5Oldd-28" style="edgeStyle=orthogonalEdgeStyle;rounded=0;orthogonalLoop=1;jettySize=auto;html=1;exitX=0;exitY=0.25;exitDx=0;exitDy=0;entryX=1;entryY=0.25;entryDx=0;entryDy=0;" edge="1" parent="1" source="sZujaXr4po-Wnfq5Oldd-18" target="sZujaXr4po-Wnfq5Oldd-5">
          <mxGeometry relative="1" as="geometry">
            <Array as="points">
              <mxPoint x="-20" y="140" />
              <mxPoint x="-20" y="40" />
              <mxPoint x="680" y="40" />
              <mxPoint x="680" y="460" />
            </Array>
          </mxGeometry>
        </mxCell>
        <mxCell id="sZujaXr4po-Wnfq5Oldd-29" value="9115" style="edgeLabel;html=1;align=center;verticalAlign=middle;resizable=0;points=[];" vertex="1" connectable="0" parent="sZujaXr4po-Wnfq5Oldd-28">
          <mxGeometry x="-0.2833" y="-1" relative="1" as="geometry">
            <mxPoint x="-209" as="offset" />
          </mxGeometry>
        </mxCell>
        <mxCell id="sZujaXr4po-Wnfq5Oldd-18" value="BROWSER" style="whiteSpace=wrap;html=1;aspect=fixed;" vertex="1" parent="1">
          <mxGeometry y="120" width="80" height="80" as="geometry" />
        </mxCell>
        <mxCell id="sZujaXr4po-Wnfq5Oldd-30" value="TARGETS" style="ellipse;shape=cloud;whiteSpace=wrap;html=1;" vertex="1" parent="1">
          <mxGeometry x="-20" y="440" width="120" height="80" as="geometry" />
        </mxCell>
        <mxCell id="sZujaXr4po-Wnfq5Oldd-33" style="edgeStyle=orthogonalEdgeStyle;rounded=0;orthogonalLoop=1;jettySize=auto;html=1;exitX=0;exitY=0.5;exitDx=0;exitDy=0;dashed=1;entryX=0.55;entryY=0.95;entryDx=0;entryDy=0;entryPerimeter=0;" edge="1" parent="1" source="sZujaXr4po-Wnfq5Oldd-5" target="sZujaXr4po-Wnfq5Oldd-30">
          <mxGeometry relative="1" as="geometry">
            <mxPoint x="500" y="480" as="targetPoint" />
            <Array as="points">
              <mxPoint x="520" y="480" />
              <mxPoint x="520" y="600" />
              <mxPoint x="46" y="600" />
            </Array>
          </mxGeometry>
        </mxCell>
        <mxCell id="sZujaXr4po-Wnfq5Oldd-36" value="&lt;font style=&quot;font-size: 16px;&quot;&gt;OBSERVABILITY&lt;br&gt;HOST&lt;/font&gt;" style="text;html=1;strokeColor=none;fillColor=none;align=center;verticalAlign=middle;whiteSpace=wrap;rounded=0;" vertex="1" parent="1">
          <mxGeometry x="371.5" y="465" width="137" height="30" as="geometry" />
        </mxCell>
      </root>
    </mxGraphModel>
  </diagram>
</mxfile>
